<?xml version="1.0" encoding="UTF-8"?><svg id="Laag_1" xmlns="http://www.w3.org/2000/svg" viewBox="0 0 842.18 261.46"><defs><style>.cls-1{fill:#005552;}.cls-2{fill:#66d08f;}.cls-3{fill:#00116e;}.cls-4{fill:#fff;}.cls-5{fill:#bb4eac;}.cls-6{fill:#404d92;}.cls-7{fill:#3e4856;}.cls-8{fill:#4a0060;}</style></defs><path class="cls-4" d="m130.73,0C58.53,0,0,58.53,0,130.73s58.53,130.73,130.73,130.73h580.72c72.2,0,130.73-58.53,130.73-130.73S783.65,0,711.45,0H130.73Z"/><path class="cls-5" d="m558.88,57.41c-8.27-8.27-21.67-8.27-29.93,0-.1.1-.19.21-.29.32l-71.96,71.92s0,0,0,0c-8.27,8.27-8.27,21.67,0,29.93,8.27,8.27,21.67,8.27,29.93,0,0,0,0,0,0,0l72.24-72.24s0,0,0,0c8.27-8.27,8.27-21.67,0-29.93h0Z"/><path class="cls-2" d="m609.52,144.62c0-11.68-9.48-21.16-21.16-21.16h-116.69c-5.42,0-10.83,2.07-14.97,6.2-8.27,8.27-8.27,21.67,0,29.93,4.13,4.13,9.55,6.2,14.97,6.2h116.69c11.69,0,21.16-9.47,21.16-21.17h0Z"/><path class="cls-7" d="m471.74,165.79c5.39-.02,10.78-2.08,14.89-6.2,0,0,0,0,0,0l36.13-36.13h-51.09c-5.42,0-10.83,2.07-14.97,6.2-8.27,8.27-8.27,21.67,0,29.93,4.13,4.13,9.55,6.2,14.97,6.2h.08Z"/><path class="cls-6" d="m565.08,189.07v-116.69c0-5.42-2.07-10.83-6.2-14.97-8.27-8.27-21.67-8.27-29.93,0-4.13,4.13-6.2,9.55-6.2,14.97v116.69c0,11.69,9.48,21.17,21.16,21.17s21.16-9.47,21.16-21.17h0Z"/><path class="cls-3" d="m167.03,124.38l-7.66,20.92-19.6-57.16h-19.49l30.99,77.75h15.11l12.26-30.44,12.37,30.44h15l31.1-77.75h-19.6l-19.49,57.16-7.88-20.92,13.03-36.14h-16.64l-7.89,24.86-7.88-24.86h-16.53l12.81,36.14h0Zm94.83,41.5v-77.75h-17.96v77.75h17.96Zm68.33,0h14.89v-40.63h-30v13.03h15.11v2.41c-5.62,6.5-11.93,9.74-18.94,9.74-3.07,0-5.86-.58-8.38-1.75-2.52-1.16-4.69-2.79-6.51-4.87-1.83-2.08-3.25-4.55-4.27-7.39-1.02-2.85-1.53-5.95-1.53-9.31s.47-6.35,1.42-9.2c.95-2.85,2.3-5.35,4.05-7.5,1.75-2.15,3.85-3.83,6.3-5.04,2.45-1.2,5.16-1.81,8.16-1.81,3.87,0,7.46.97,10.78,2.9,3.32,1.94,5.86,4.65,7.61,8.16l13.36-10.07c-2.7-5.26-6.75-9.4-12.16-12.43-5.4-3.03-11.72-4.54-18.94-4.54-5.48,0-10.58,1.02-15.33,3.07-4.75,2.05-8.85,4.82-12.32,8.32-3.47,3.5-6.19,7.63-8.16,12.37-1.97,4.75-2.96,9.78-2.96,15.11,0,5.91.98,11.33,2.96,16.26,1.97,4.93,4.65,9.15,8.05,12.65,3.39,3.5,7.35,6.23,11.88,8.16,4.53,1.93,9.34,2.9,14.46,2.9,7.74,0,14.56-2.73,20.48-8.21v7.67h0Zm76.32-2.63c4.74-2.19,8.83-5.09,12.26-8.71,3.43-3.61,6.11-7.79,8.05-12.54,1.93-4.75,2.9-9.68,2.9-14.79s-.91-9.71-2.74-14.45c-1.83-4.74-4.42-8.98-7.77-12.7-3.36-3.72-7.41-6.72-12.16-8.98-4.75-2.26-10-3.39-15.77-3.39s-10.8,1.08-15.55,3.23c-4.75,2.15-8.85,5.04-12.32,8.65-3.47,3.61-6.17,7.79-8.1,12.54-1.94,4.75-2.9,9.67-2.9,14.78s.93,9.93,2.79,14.67c1.86,4.75,4.47,8.96,7.83,12.65,3.36,3.69,7.41,6.66,12.15,8.92,4.74,2.26,10,3.4,15.77,3.4s10.8-1.1,15.55-3.29h0Zm-34.55-44.73c.84-2.81,2.12-5.31,3.83-7.5,1.71-2.19,3.83-3.96,6.35-5.31,2.52-1.35,5.49-2.03,8.92-2.03s6.19.64,8.71,1.92c2.52,1.28,4.65,2.99,6.41,5.15,1.75,2.15,3.07,4.64,3.94,7.45.88,2.81,1.31,5.71,1.31,8.71s-.42,5.79-1.26,8.6c-.84,2.81-2.1,5.33-3.78,7.56-1.68,2.22-3.8,4.03-6.35,5.42-2.56,1.39-5.55,2.08-8.98,2.08s-6.21-.66-8.76-1.97c-2.56-1.31-4.69-3.07-6.41-5.26-1.72-2.2-3.01-4.69-3.89-7.5-.88-2.81-1.31-5.71-1.31-8.7s.42-5.78,1.26-8.6h0Z"/><path class="cls-3" d="m647,165.93v-77.74h-17.96v77.74h17.96Zm74.13-77.74h-65.37v15.77h23.76v61.98h17.96v-61.98h23.65v-15.77h0Z"/><polygon class="cls-1" points="522.75 123.46 522.75 165.79 565.08 165.79 565.08 123.46 522.75 123.46 522.75 123.46"/><path class="cls-4" d="m465.68,150.61c3.31,3.31,8.67,3.31,11.97,0,3.31-3.31,3.31-8.67,0-11.98-3.31-3.3-8.67-3.3-11.97,0-3.31,3.31-3.31,8.67,0,11.98h0Z"/><path class="cls-4" d="m543.91,197.54c4.68,0,8.47-3.79,8.47-8.47s-3.79-8.47-8.47-8.47-8.47,3.79-8.47,8.47,3.79,8.47,8.47,8.47h0Z"/><path class="cls-4" d="m588.36,153.09c4.68,0,8.47-3.79,8.47-8.47s-3.79-8.47-8.47-8.47-8.47,3.79-8.47,8.47,3.79,8.47,8.47,8.47h0Z"/><path class="cls-8" d="m528.36,58.03c-3.74,4.05-5.61,9.2-5.61,14.35v51.09l36.13-36.13s0,0,0,0c8.01-8.01,8.26-20.83.75-29.14-.24-.27-.49-.53-.75-.79-8.27-8.27-21.67-8.27-29.93,0-.1.1-.19.21-.29.32l-.3.3Z"/><path class="cls-4" d="m549.9,78.38c3.31-3.31,3.31-8.67,0-11.97-3.31-3.31-8.67-3.31-11.97,0-3.31,3.31-3.31,8.67,0,11.97,3.31,3.31,8.67,3.31,11.97,0h0Z"/></svg>