<?xml version="1.0" standalone="no"?>
<!DOCTYPE svg PUBLIC "-//W3C//DTD SVG 20010904//EN"
 "http://www.w3.org/TR/2001/REC-SVG-20010904/DTD/svg10.dtd">
<svg version="1.0" xmlns="http://www.w3.org/2000/svg"
 width="400.000000pt" height="400.000000pt" viewBox="0 0 400.000000 400.000000"
 preserveAspectRatio="xMidYMid meet">
<metadata>
Created by potrace 1.14, written by Peter Selinger 2001-2017
</metadata>
<g transform="translate(0.000000,400.000000) scale(0.100000,-0.100000)"
fill="#000000" stroke="none">
<path d="M2235 3765 c-94 -23 -166 -66 -240 -143 -130 -136 -1519 -1526 -1591
-1592 -109 -100 -148 -168 -175 -303 -34 -176 64 -388 223 -481 91 -53 144
-67 259 -67 123 0 174 7 209 31 14 10 40 27 59 38 19 11 223 208 453 438 230
230 418 414 419 408 0 -5 2 -209 4 -454 2 -245 7 -582 12 -750 8 -277 10 -310
30 -357 52 -130 132 -217 250 -273 88 -42 227 -53 328 -25 147 39 274 163 328
320 22 62 47 1556 27 1580 -8 9 -10 210 -9 642 1 400 -2 637 -9 649 -5 10 -22
48 -38 84 -85 192 -329 307 -539 255z m207 -336 c33 -24 67 -89 68 -130 0 -66
-56 -139 -122 -157 -117 -32 -225 72 -202 194 8 42 69 110 106 117 45 10 118
-2 150 -24z m-1650 -1636 c39 -24 65 -67 72 -123 16 -121 -112 -213 -227 -165
-77 32 -118 136 -84 216 15 37 66 83 102 92 33 9 105 -2 137 -20z m1645 -959
c48 -36 66 -70 70 -131 5 -67 -13 -104 -69 -146 -50 -37 -103 -41 -164 -13
-42 19 -55 32 -74 71 -42 87 -8 193 73 230 44 20 130 14 164 -11z"/>
<path d="M3293 2123 c9 -2 25 -2 35 0 9 3 1 5 -18 5 -19 0 -27 -2 -17 -5z"/>
<path d="M3527 2059 c7 -7 15 -10 18 -7 3 3 -2 9 -12 12 -14 6 -15 5 -6 -5z"/>
<path d="M3365 1830 c-3 -5 -1 -10 4 -10 6 0 11 5 11 10 0 6 -2 10 -4 10 -3 0
-8 -4 -11 -10z"/>
<path d="M3150 1759 c0 -5 5 -7 10 -4 6 3 10 8 10 11 0 2 -4 4 -10 4 -5 0 -10
-5 -10 -11z"/>
<path d="M3132 1655 c0 -16 2 -22 5 -12 2 9 2 23 0 30 -3 6 -5 -1 -5 -18z"/>
<path d="M3388 1193 c7 -3 16 -2 19 1 4 3 -2 6 -13 5 -11 0 -14 -3 -6 -6z"/>
</g>
</svg>
